<?xml version="1.0" encoding="UTF-8"?>
<svg xmlns="http://www.w3.org/2000/svg" xmlns:xlink="http://www.w3.org/1999/xlink" width="207px" height="150px" viewBox="0 0 207 150" version="1.1">
<g id="surface1">
<path style=" stroke:none;fill-rule:nonzero;fill:rgb(90.980392%,35.294118%,30.980392%);fill-opacity:1;" d="M 167.15625 134.929688 L 192.425781 134.929688 L 192.425781 149.492188 L 167.15625 149.492188 Z M 167.15625 134.929688 "/>
<path style=" stroke:none;fill-rule:nonzero;fill:rgb(18.431373%,18.039216%,25.490196%);fill-opacity:1;" d="M 140.539062 146.125 C 140.3125 146.894531 140.207031 147.792969 140.679688 148.445312 C 140.9375 148.773438 141.28125 149.023438 141.671875 149.167969 C 142.675781 149.566406 143.753906 149.722656 144.824219 149.632812 C 145.242188 149.652344 145.644531 149.5 145.941406 149.203125 C 148.433594 147.144531 150.117188 144.273438 150.699219 141.101562 C 150.746094 140.933594 150.734375 140.761719 150.671875 140.601562 C 150.589844 140.480469 150.476562 140.382812 150.339844 140.320312 C 149.789062 139.976562 149.191406 139.703125 148.566406 139.511719 C 145.144531 138.628906 141.386719 143.246094 140.539062 146.125 Z M 140.539062 146.125 "/>
<path style=" stroke:none;fill-rule:nonzero;fill:rgb(18.431373%,18.039216%,25.490196%);fill-opacity:1;" d="M 176.410156 135.324219 C 176.871094 135.855469 177.4375 136.289062 178.074219 136.589844 C 178.71875 136.886719 179.46875 136.875 180.105469 136.554688 C 181.046875 136.019531 181.3125 134.773438 181.238281 133.695312 C 181.097656 131.703125 180.144531 129.902344 179.046875 128.269531 C 178.699219 127.757812 177.933594 126.222656 177.257812 126.203125 C 176.9375 126.191406 175.742188 127.351562 175.414062 127.570312 C 174.226562 128.378906 173.402344 128.957031 173.648438 130.503906 C 173.925781 132.230469 175.246094 134.078125 176.410156 135.324219 Z M 176.410156 135.324219 "/>
<path style=" stroke:none;fill-rule:nonzero;fill:rgb(18.431373%,18.039216%,25.490196%);fill-opacity:1;" d="M 165.984375 52.773438 C 160.925781 52.378906 156.089844 52.523438 151.019531 52.265625 C 150.59375 52.242188 150.796875 57.117188 150.355469 59.761719 C 150.128906 61.121094 142.496094 140.792969 143.445312 140.953125 C 145.878906 141.460938 148.339844 141.824219 150.8125 142.042969 C 151.820312 142.132812 161.179688 90.222656 160.730469 86 C 161.957031 87.800781 166.273438 96.089844 168.457031 105.628906 C 171.335938 118.210938 172.183594 132.445312 173.972656 131.648438 C 175.125 130.066406 176.691406 128.832031 178.496094 128.074219 C 181.453125 126.972656 176.660156 66.441406 171.59375 63.660156 C 171.53125 61.886719 171.464844 60.074219 170.796875 58.429688 C 169.855469 56.113281 167.996094 54.261719 165.984375 52.773438 Z M 165.984375 52.773438 "/>
<path style=" stroke:none;fill-rule:nonzero;fill:rgb(24.705882%,23.921569%,33.72549%);fill-opacity:1;" d="M 206.949219 149.933594 L 67.472656 149.933594 L 67.472656 149.40625 L 207.042969 149.40625 Z M 206.949219 149.933594 "/>
<path style=" stroke:none;fill-rule:nonzero;fill:rgb(90.196078%,90.196078%,90.196078%);fill-opacity:1;" d="M 0 71.449219 L 114.4375 71.449219 L 114.4375 94.019531 L 0 94.019531 Z M 0 71.449219 "/>
<path style=" stroke:none;fill-rule:nonzero;fill:rgb(90.196078%,90.196078%,90.196078%);fill-opacity:1;" d="M 0 35.78125 L 114.4375 35.78125 L 114.4375 58.355469 L 0 58.355469 Z M 0 35.78125 "/>
<path style=" stroke:none;fill-rule:nonzero;fill:rgb(90.196078%,90.196078%,90.196078%);fill-opacity:1;" d="M 0 0 L 114.4375 0 L 114.4375 22.574219 L 0 22.574219 Z M 0 0 "/>
<path style=" stroke:none;fill-rule:nonzero;fill:rgb(100%,100%,100%);fill-opacity:1;" d="M 2.441406 20.136719 L 111.996094 20.136719 L 111.996094 2.4375 L 2.441406 2.4375 Z M 2.441406 20.136719 "/>
<path style=" stroke:none;fill-rule:nonzero;fill:rgb(100%,100%,100%);fill-opacity:1;" d="M 2.441406 55.996094 L 111.996094 55.996094 L 111.996094 38.300781 L 2.441406 38.300781 Z M 2.441406 55.996094 "/>
<path style=" stroke:none;fill-rule:nonzero;fill:rgb(100%,100%,100%);fill-opacity:1;" d="M 2.441406 91.582031 L 111.996094 91.582031 L 111.996094 73.882812 L 2.441406 73.882812 Z M 2.441406 91.582031 "/>
<path style=" stroke:none;fill-rule:nonzero;fill:rgb(90.980392%,35.294118%,30.980392%);fill-opacity:1;" d="M 18.777344 11.140625 C 18.777344 14.863281 15.757812 17.882812 12.03125 17.882812 C 8.304688 17.882812 5.28125 14.863281 5.28125 11.140625 C 5.28125 7.417969 8.304688 4.394531 12.03125 4.394531 C 15.757812 4.394531 18.777344 7.417969 18.777344 11.140625 Z M 18.777344 11.140625 "/>
<path style=" stroke:none;fill-rule:nonzero;fill:rgb(90.980392%,35.294118%,30.980392%);fill-opacity:1;" d="M 28.167969 8.5 L 94.777344 8.5 L 94.777344 9.96875 L 28.167969 9.96875 Z M 28.167969 8.5 "/>
<path style=" stroke:none;fill-rule:nonzero;fill:rgb(90.980392%,35.294118%,30.980392%);fill-opacity:1;" d="M 28.167969 12.3125 L 94.777344 12.3125 L 94.777344 13.777344 L 28.167969 13.777344 Z M 28.167969 12.3125 "/>
<path style=" stroke:none;fill-rule:nonzero;fill:rgb(80%,80%,80%);fill-opacity:1;" d="M 18.777344 47.214844 C 18.777344 50.9375 15.757812 53.957031 12.03125 53.957031 C 8.304688 53.957031 5.28125 50.9375 5.28125 47.214844 C 5.28125 43.492188 8.304688 40.472656 12.03125 40.472656 C 15.757812 40.472656 18.777344 43.492188 18.777344 47.214844 Z M 18.777344 47.214844 "/>
<path style=" stroke:none;fill-rule:nonzero;fill:rgb(80%,80%,80%);fill-opacity:1;" d="M 28.167969 44.578125 L 94.777344 44.578125 L 94.777344 46.042969 L 28.167969 46.042969 Z M 28.167969 44.578125 "/>
<path style=" stroke:none;fill-rule:nonzero;fill:rgb(80%,80%,80%);fill-opacity:1;" d="M 28.167969 48.386719 L 94.777344 48.386719 L 94.777344 49.855469 L 28.167969 49.855469 Z M 28.167969 48.386719 "/>
<path style=" stroke:none;fill-rule:nonzero;fill:rgb(80%,80%,80%);fill-opacity:1;" d="M 18.777344 82.878906 C 18.777344 86.605469 15.757812 89.625 12.03125 89.625 C 8.304688 89.625 5.28125 86.605469 5.28125 82.878906 C 5.28125 79.15625 8.304688 76.136719 12.03125 76.136719 C 15.757812 76.136719 18.777344 79.15625 18.777344 82.878906 Z M 18.777344 82.878906 "/>
<path style=" stroke:none;fill-rule:nonzero;fill:rgb(80%,80%,80%);fill-opacity:1;" d="M 28.167969 80.242188 L 94.777344 80.242188 L 94.777344 81.707031 L 28.167969 81.707031 Z M 28.167969 80.242188 "/>
<path style=" stroke:none;fill-rule:nonzero;fill:rgb(80%,80%,80%);fill-opacity:1;" d="M 28.167969 84.050781 L 94.777344 84.050781 L 94.777344 85.519531 L 28.167969 85.519531 Z M 28.167969 84.050781 "/>
<path style=" stroke:none;fill-rule:nonzero;fill:rgb(18.431373%,18.039216%,25.490196%);fill-opacity:1;" d="M 164.738281 14.132812 C 162.113281 9.695312 156.914062 9.488281 156.914062 9.488281 C 156.914062 9.488281 151.851562 8.84375 148.601562 15.59375 C 145.574219 21.890625 141.394531 27.96875 147.929688 29.441406 L 149.109375 25.773438 L 149.839844 29.714844 C 150.769531 29.78125 151.703125 29.796875 152.636719 29.765625 C 159.632812 29.539062 166.296875 29.828125 166.082031 27.320312 C 165.796875 23.984375 167.265625 18.394531 164.738281 14.132812 Z M 164.738281 14.132812 "/>
<path style=" stroke:none;fill-rule:nonzero;fill:rgb(100%,72.156863%,72.156863%);fill-opacity:1;" d="M 155.046875 29.238281 C 155.0625 29.738281 155.058594 30.265625 154.808594 30.699219 C 154.316406 31.554688 153.113281 31.683594 152.390625 32.359375 C 151.632812 33.074219 151.546875 34.230469 151.511719 35.269531 C 151.472656 36.355469 151.441406 37.480469 151.835938 38.492188 C 152.082031 39.050781 152.386719 39.582031 152.753906 40.066406 C 153.195312 40.703125 153.640625 41.335938 154.089844 41.964844 C 154.328125 42.320312 154.597656 42.65625 154.890625 42.96875 C 155.695312 43.789062 156.796875 44.238281 157.902344 44.5625 C 158.613281 44.773438 159.382812 44.933594 160.089844 44.710938 C 160.554688 44.523438 160.988281 44.261719 161.359375 43.925781 C 161.90625 43.535156 162.390625 43.066406 162.800781 42.53125 C 163.394531 41.671875 163.558594 40.597656 163.683594 39.558594 C 164.046875 36.492188 164.1875 33.402344 164.105469 30.316406 C 164.121094 29.980469 164.058594 29.644531 163.929688 29.335938 C 163.5625 28.621094 162.582031 28.464844 162.066406 27.851562 C 161.625 27.328125 161.605469 26.582031 161.609375 25.894531 L 161.621094 24.148438 C 161.636719 24 161.605469 23.851562 161.535156 23.722656 C 161.40625 23.582031 161.226562 23.496094 161.035156 23.488281 C 159.949219 23.308594 158.847656 23.234375 157.746094 23.269531 C 156.855469 23.296875 155.140625 23.222656 154.371094 23.714844 C 153.671875 24.167969 154.546875 25.410156 154.710938 26.109375 C 154.925781 27.140625 155.039062 28.1875 155.046875 29.238281 Z M 155.046875 29.238281 "/>
<path style=" stroke:none;fill-rule:nonzero;fill:rgb(100%,72.156863%,72.156863%);fill-opacity:1;" d="M 164.160156 19.183594 C 164.160156 23.082031 160.996094 26.242188 157.09375 26.242188 C 153.195312 26.242188 150.03125 23.082031 150.03125 19.183594 C 150.03125 15.289062 153.195312 12.128906 157.09375 12.128906 C 160.996094 12.128906 164.160156 15.289062 164.160156 19.183594 Z M 164.160156 19.183594 "/>
<path style=" stroke:none;fill-rule:nonzero;fill:rgb(90.980392%,35.294118%,30.980392%);fill-opacity:1;" d="M 155.496094 34.445312 C 151.851562 22.90625 149.929688 39.113281 147.632812 43.542969 C 147.652344 46.59375 147.734375 55.03125 148.449219 58.230469 C 151.226562 70.65625 164.96875 69.683594 169.101562 59.203125 C 171.304688 53.617188 166.417969 39.78125 166.585938 33.328125 C 160.53125 27.199219 160.160156 46.632812 155.496094 34.445312 Z M 155.496094 34.445312 "/>
<path style=" stroke:none;fill-rule:nonzero;fill:rgb(34.117647%,35.294118%,53.333333%);fill-opacity:1;" d="M 151.496094 30.488281 C 143.59375 34.324219 147.363281 44.625 144.5 51.367188 C 142.214844 60.621094 136.398438 63.53125 149.695312 63.746094 C 152.558594 55.289062 149.761719 46.105469 153.667969 37.492188 C 153.9375 34.117188 155.09375 32.851562 154.992188 29.996094 C 154.226562 28.808594 152.242188 30.117188 151.496094 30.488281 Z M 151.496094 30.488281 "/>
<path style=" stroke:none;fill-rule:nonzero;fill:rgb(18.431373%,18.039216%,25.490196%);fill-opacity:1;" d="M 163.578125 13.703125 L 158.441406 11.015625 L 151.351562 12.113281 L 149.886719 18.585938 L 153.539062 18.445312 L 154.558594 16.070312 L 154.558594 18.410156 L 156.242188 18.34375 L 157.21875 14.558594 L 157.832031 18.585938 L 163.824219 18.464844 Z M 163.578125 13.703125 "/>
<path style=" stroke:none;fill-rule:nonzero;fill:rgb(34.117647%,35.294118%,53.333333%);fill-opacity:1;" d="M 160.402344 33.734375 C 164.46875 33.261719 160.503906 28.382812 163.730469 28.464844 C 173.394531 26.839844 176.285156 32.820312 172.609375 41.167969 C 169.242188 47.847656 181.15625 57.238281 174.5 60.976562 C 172.136719 61.847656 168.753906 64.570312 166.445312 63.382812 C 162.738281 54.074219 162.605469 43.441406 160.402344 33.734375 Z M 160.402344 33.734375 "/>
<path style=" stroke:none;fill-rule:nonzero;fill:rgb(100%,72.156863%,72.156863%);fill-opacity:1;" d="M 171.71875 60.304688 C 170.300781 60.980469 169.183594 62.054688 168.234375 63.304688 C 168.035156 63.574219 168.304688 64.066406 168.902344 64.058594 C 169.464844 64.050781 169.796875 63.332031 170.355469 63.324219 C 170.527344 64.820312 170.835938 66.292969 171.28125 67.730469 C 172.398438 66.75 173.066406 65.371094 173.703125 64.035156 L 174.96875 61.386719 C 175.433594 60.414062 175.898438 59.441406 176.316406 58.449219 C 176.429688 58.21875 176.5 57.96875 176.523438 57.710938 C 176.578125 56.003906 174.890625 55.992188 174.164062 57.0625 C 173.371094 58.230469 173.121094 59.632812 171.71875 60.304688 Z M 171.71875 60.304688 "/>
<path style=" stroke:none;fill-rule:nonzero;fill:rgb(34.117647%,35.294118%,53.333333%);fill-opacity:1;" d="M 172.007812 30.949219 C 173.089844 32.070312 174.175781 33.199219 175.015625 34.515625 C 175.855469 35.824219 180.191406 47.625 180.367188 47.875 C 180.996094 48.796875 180.261719 51.183594 180.226562 51.320312 C 180.152344 51.75 179.25 56.03125 179.023438 56.976562 C 178.863281 57.636719 178.867188 58.328125 178.761719 58.996094 C 178.65625 59.671875 178.425781 60.359375 177.90625 60.804688 C 177.839844 60.867188 177.757812 60.914062 177.667969 60.933594 C 177.382812 60.992188 177.1875 60.660156 177.085938 60.382812 C 176.773438 59.527344 176.457031 58.65625 175.902344 57.929688 C 175.351562 57.207031 174.515625 56.636719 173.601562 56.640625 C 173.449219 56.273438 173.480469 55.859375 173.691406 55.519531 C 173.875 55.175781 174.140625 54.882812 174.34375 54.550781 C 174.597656 54.097656 174.773438 53.597656 174.855469 53.085938 C 175.308594 50.722656 174.851562 48.277344 173.585938 46.230469 C 173.292969 45.742188 172.933594 45.300781 172.527344 44.902344 C 172.082031 44.488281 171.558594 44.152344 171.148438 43.703125 C 170.515625 42.953125 170.128906 42.023438 170.050781 41.046875 C 169.976562 40.074219 170.003906 39.097656 170.128906 38.128906 C 170.3125 36.210938 170.550781 34.292969 170.824219 32.386719 C 170.847656 32.136719 170.910156 31.894531 171.015625 31.667969 C 171.230469 31.269531 171.597656 31.140625 172.007812 30.949219 Z M 172.007812 30.949219 "/>
<path style=" stroke:none;fill-rule:nonzero;fill:rgb(100%,72.156863%,72.156863%);fill-opacity:1;" d="M 148.425781 57.445312 C 147.699219 56.375 146.015625 56.382812 146.070312 58.09375 C 146.09375 58.347656 146.164062 58.601562 146.277344 58.832031 C 146.695312 59.824219 147.160156 60.796875 147.625 61.769531 L 148.886719 64.414062 C 149.527344 65.757812 150.195312 67.136719 151.308594 68.113281 C 151.753906 66.679688 152.0625 65.203125 152.234375 63.707031 C 152.792969 63.714844 153.128906 64.429688 153.6875 64.441406 C 154.289062 64.445312 154.558594 63.953125 154.355469 63.691406 C 153.410156 62.441406 152.289062 61.367188 150.875 60.691406 C 149.46875 60.015625 149.222656 58.613281 148.425781 57.445312 Z M 148.425781 57.445312 "/>
<path style=" stroke:none;fill-rule:nonzero;fill:rgb(34.117647%,35.294118%,53.333333%);fill-opacity:1;" d="M 151.574219 32.050781 C 151.679688 32.277344 151.746094 32.519531 151.765625 32.769531 C 152.039062 34.675781 152.277344 36.597656 152.460938 38.515625 C 152.589844 39.480469 152.617188 40.457031 152.539062 41.429688 C 152.460938 42.40625 152.078125 43.335938 151.445312 44.085938 C 151.03125 44.539062 150.511719 44.871094 150.066406 45.289062 C 149.65625 45.679688 149.300781 46.125 149.003906 46.613281 C 147.738281 48.65625 147.285156 51.105469 147.734375 53.472656 C 147.820312 53.984375 147.992188 54.480469 148.25 54.933594 C 148.449219 55.269531 148.71875 55.5625 148.902344 55.90625 C 149.109375 56.242188 149.144531 56.65625 148.988281 57.023438 C 148.078125 57.019531 147.242188 57.589844 146.6875 58.316406 C 146.136719 59.039062 145.820312 59.910156 145.503906 60.769531 C 145.40625 61.039062 145.210938 61.371094 144.921875 61.316406 C 144.832031 61.292969 144.753906 61.25 144.6875 61.183594 C 144.167969 60.746094 143.933594 60.054688 143.832031 59.378906 C 143.726562 58.710938 143.726562 58.019531 143.570312 57.359375 C 143.34375 56.414062 142.4375 52.132812 142.367188 51.703125 C 142.328125 51.570312 141.597656 49.179688 142.222656 48.257812 C 142.398438 48.007812 146.738281 36.210938 147.578125 34.894531 C 148.414062 33.582031 149.503906 32.453125 150.582031 31.332031 C 150.996094 31.523438 151.359375 31.648438 151.574219 32.050781 Z M 151.574219 32.050781 "/>
</g>
</svg>
